<mxfile host="app.diagrams.net" modified="2021-02-03T09:32:11.687Z" agent="5.0 (Windows NT 10.0; Win64; x64) AppleWebKit/537.36 (KHTML, like Gecko) Chrome/88.0.4324.104 Safari/537.36" etag="WCEwmEqAYvfYGGout-ou" version="13.9.3" type="github">
  <diagram id="dnmpsoeeeJT46zkn7s7R" name="Page-1">
    <mxGraphModel dx="981" dy="548" grid="1" gridSize="10" guides="1" tooltips="1" connect="1" arrows="1" fold="1" page="1" pageScale="1" pageWidth="827" pageHeight="1169" math="0" shadow="0">
      <root>
        <mxCell id="0" />
        <mxCell id="1" parent="0" />
        <mxCell id="AG46Gf9QhDtv5VO2vgpa-24" value="" style="rounded=0;whiteSpace=wrap;html=1;fillColor=#d5e8d4;strokeColor=#82b366;" vertex="1" parent="1">
          <mxGeometry x="340" y="210" width="330" height="250" as="geometry" />
        </mxCell>
        <mxCell id="AG46Gf9QhDtv5VO2vgpa-2" value="LDAP" style="shape=note;whiteSpace=wrap;html=1;backgroundOutline=1;darkOpacity=0.05;" vertex="1" parent="1">
          <mxGeometry x="360" y="40" width="120" height="100" as="geometry" />
        </mxCell>
        <mxCell id="AG46Gf9QhDtv5VO2vgpa-5" value="&lt;font style=&quot;font-size: 18px&quot;&gt;AuthService&lt;/font&gt;" style="rounded=0;whiteSpace=wrap;html=1;" vertex="1" parent="1">
          <mxGeometry x="360" y="240" width="120" height="60" as="geometry" />
        </mxCell>
        <mxCell id="AG46Gf9QhDtv5VO2vgpa-6" value="Resource Service&lt;br&gt;Spring" style="rounded=0;whiteSpace=wrap;html=1;" vertex="1" parent="1">
          <mxGeometry x="520" y="360" width="120" height="80" as="geometry" />
        </mxCell>
        <mxCell id="AG46Gf9QhDtv5VO2vgpa-7" value="Angular" style="rounded=0;whiteSpace=wrap;html=1;" vertex="1" parent="1">
          <mxGeometry x="190" y="360" width="120" height="80" as="geometry" />
        </mxCell>
        <mxCell id="AG46Gf9QhDtv5VO2vgpa-10" value="" style="endArrow=classic;html=1;exitX=0.25;exitY=0;exitDx=0;exitDy=0;entryX=0.257;entryY=0.997;entryDx=0;entryDy=0;entryPerimeter=0;" edge="1" parent="1" source="AG46Gf9QhDtv5VO2vgpa-5" target="AG46Gf9QhDtv5VO2vgpa-2">
          <mxGeometry width="50" height="50" relative="1" as="geometry">
            <mxPoint x="370" y="250" as="sourcePoint" />
            <mxPoint x="450" y="180" as="targetPoint" />
          </mxGeometry>
        </mxCell>
        <mxCell id="AG46Gf9QhDtv5VO2vgpa-11" value="" style="endArrow=classic;html=1;" edge="1" parent="1">
          <mxGeometry width="50" height="50" relative="1" as="geometry">
            <mxPoint x="450" y="141" as="sourcePoint" />
            <mxPoint x="450" y="240" as="targetPoint" />
          </mxGeometry>
        </mxCell>
        <mxCell id="AG46Gf9QhDtv5VO2vgpa-12" value="" style="endArrow=classic;html=1;exitX=0.25;exitY=0;exitDx=0;exitDy=0;" edge="1" parent="1" source="AG46Gf9QhDtv5VO2vgpa-7">
          <mxGeometry width="50" height="50" relative="1" as="geometry">
            <mxPoint x="390" y="380" as="sourcePoint" />
            <mxPoint x="358" y="260" as="targetPoint" />
            <Array as="points">
              <mxPoint x="220" y="260" />
            </Array>
          </mxGeometry>
        </mxCell>
        <mxCell id="AG46Gf9QhDtv5VO2vgpa-13" value="" style="endArrow=classic;html=1;entryX=0.75;entryY=0;entryDx=0;entryDy=0;exitX=0;exitY=0.75;exitDx=0;exitDy=0;" edge="1" parent="1" source="AG46Gf9QhDtv5VO2vgpa-5" target="AG46Gf9QhDtv5VO2vgpa-7">
          <mxGeometry width="50" height="50" relative="1" as="geometry">
            <mxPoint x="390" y="380" as="sourcePoint" />
            <mxPoint x="440" y="330" as="targetPoint" />
            <Array as="points">
              <mxPoint x="280" y="285" />
            </Array>
          </mxGeometry>
        </mxCell>
        <mxCell id="AG46Gf9QhDtv5VO2vgpa-14" value="" style="endArrow=classic;html=1;exitX=1;exitY=0.25;exitDx=0;exitDy=0;entryX=0.75;entryY=0;entryDx=0;entryDy=0;" edge="1" parent="1" source="AG46Gf9QhDtv5VO2vgpa-5" target="AG46Gf9QhDtv5VO2vgpa-6">
          <mxGeometry width="50" height="50" relative="1" as="geometry">
            <mxPoint x="390" y="380" as="sourcePoint" />
            <mxPoint x="440" y="330" as="targetPoint" />
            <Array as="points">
              <mxPoint x="610" y="255" />
            </Array>
          </mxGeometry>
        </mxCell>
        <mxCell id="AG46Gf9QhDtv5VO2vgpa-15" value="" style="endArrow=none;html=1;exitX=1;exitY=0.75;exitDx=0;exitDy=0;entryX=0.25;entryY=0;entryDx=0;entryDy=0;startArrow=classic;startFill=1;endFill=0;" edge="1" parent="1" source="AG46Gf9QhDtv5VO2vgpa-5" target="AG46Gf9QhDtv5VO2vgpa-6">
          <mxGeometry width="50" height="50" relative="1" as="geometry">
            <mxPoint x="390" y="380" as="sourcePoint" />
            <mxPoint x="440" y="330" as="targetPoint" />
            <Array as="points">
              <mxPoint x="550" y="285" />
            </Array>
          </mxGeometry>
        </mxCell>
        <mxCell id="AG46Gf9QhDtv5VO2vgpa-16" value="" style="endArrow=classic;html=1;exitX=1;exitY=0.25;exitDx=0;exitDy=0;entryX=0;entryY=0.25;entryDx=0;entryDy=0;" edge="1" parent="1" source="AG46Gf9QhDtv5VO2vgpa-7" target="AG46Gf9QhDtv5VO2vgpa-6">
          <mxGeometry width="50" height="50" relative="1" as="geometry">
            <mxPoint x="390" y="380" as="sourcePoint" />
            <mxPoint x="440" y="330" as="targetPoint" />
          </mxGeometry>
        </mxCell>
        <mxCell id="AG46Gf9QhDtv5VO2vgpa-17" value="" style="endArrow=classic;html=1;exitX=0;exitY=0.75;exitDx=0;exitDy=0;entryX=1;entryY=0.75;entryDx=0;entryDy=0;" edge="1" parent="1" source="AG46Gf9QhDtv5VO2vgpa-6" target="AG46Gf9QhDtv5VO2vgpa-7">
          <mxGeometry width="50" height="50" relative="1" as="geometry">
            <mxPoint x="390" y="380" as="sourcePoint" />
            <mxPoint x="440" y="330" as="targetPoint" />
          </mxGeometry>
        </mxCell>
        <mxCell id="AG46Gf9QhDtv5VO2vgpa-18" value="username&lt;br&gt;password" style="text;html=1;strokeColor=none;fillColor=none;align=center;verticalAlign=middle;whiteSpace=wrap;rounded=0;" vertex="1" parent="1">
          <mxGeometry x="160" y="300" width="40" height="20" as="geometry" />
        </mxCell>
        <mxCell id="AG46Gf9QhDtv5VO2vgpa-19" value="JWT / exception" style="text;html=1;strokeColor=none;fillColor=none;align=center;verticalAlign=middle;whiteSpace=wrap;rounded=0;" vertex="1" parent="1">
          <mxGeometry x="290" y="300" width="40" height="20" as="geometry" />
        </mxCell>
        <mxCell id="AG46Gf9QhDtv5VO2vgpa-20" value="JWT" style="text;html=1;strokeColor=none;fillColor=none;align=center;verticalAlign=middle;whiteSpace=wrap;rounded=0;" vertex="1" parent="1">
          <mxGeometry x="380" y="360" width="40" height="20" as="geometry" />
        </mxCell>
        <mxCell id="AG46Gf9QhDtv5VO2vgpa-21" value="JWT" style="text;html=1;strokeColor=none;fillColor=none;align=center;verticalAlign=middle;whiteSpace=wrap;rounded=0;" vertex="1" parent="1">
          <mxGeometry x="510" y="310" width="40" height="20" as="geometry" />
        </mxCell>
        <mxCell id="AG46Gf9QhDtv5VO2vgpa-22" value="username&lt;br&gt;password" style="text;html=1;strokeColor=none;fillColor=none;align=center;verticalAlign=middle;whiteSpace=wrap;rounded=0;" vertex="1" parent="1">
          <mxGeometry x="340" y="180" width="40" height="20" as="geometry" />
        </mxCell>
        <mxCell id="AG46Gf9QhDtv5VO2vgpa-25" value="Valid /&lt;br&gt;Exception" style="text;html=1;strokeColor=none;fillColor=none;align=center;verticalAlign=middle;whiteSpace=wrap;rounded=0;" vertex="1" parent="1">
          <mxGeometry x="620" y="290" width="40" height="20" as="geometry" />
        </mxCell>
        <mxCell id="AG46Gf9QhDtv5VO2vgpa-26" value="Valid /&lt;br&gt;Exception" style="text;html=1;strokeColor=none;fillColor=none;align=center;verticalAlign=middle;whiteSpace=wrap;rounded=0;" vertex="1" parent="1">
          <mxGeometry x="460" y="170" width="40" height="20" as="geometry" />
        </mxCell>
        <mxCell id="AG46Gf9QhDtv5VO2vgpa-27" value="" style="endArrow=none;html=1;exitX=0;exitY=1;exitDx=0;exitDy=0;entryX=1;entryY=0;entryDx=0;entryDy=0;" edge="1" parent="1" source="AG46Gf9QhDtv5VO2vgpa-5" target="AG46Gf9QhDtv5VO2vgpa-5">
          <mxGeometry width="50" height="50" relative="1" as="geometry">
            <mxPoint x="440" y="290" as="sourcePoint" />
            <mxPoint x="490" y="240" as="targetPoint" />
          </mxGeometry>
        </mxCell>
      </root>
    </mxGraphModel>
  </diagram>
</mxfile>
